<?xml version="1.0" encoding="UTF-8"?>
<svg id="_레이어_2" data-name="레이어 2" xmlns="http://www.w3.org/2000/svg" viewBox="542.39 73.8 1490.85 1397.49" shape-rendering="crispEdges">
  <defs>
    <style>
      .cls-1 {
        fill: #d29cc5;
      }

      .cls-2 {
        fill: #040000;
      }

      .cls-3 {
        fill: #e7398e;
      }

      .cls-4 {
        fill: #f9c898;
      }
    </style>
  </defs>
  <rect class="cls-2" x="1965.49" y="1324.18" width="67.75" height="73.54"/>
  <rect class="cls-2" x="1965.49" y="1250.63" width="67.75" height="73.54"/>
  <rect class="cls-2" x="1965.49" y="1177.07" width="67.75" height="73.57"/>
  <rect class="cls-2" x="1965.49" y="1103.52" width="67.75" height="73.54"/>
  <rect class="cls-2" x="1965.49" y="1029.98" width="67.75" height="73.54"/>
  <rect class="cls-2" x="1965.49" y="956.41" width="67.75" height="73.57"/>
  <rect class="cls-2" x="1965.49" y="882.87" width="67.75" height="73.54"/>
  <rect class="cls-2" x="1965.49" y="809.33" width="67.75" height="73.54"/>
  <rect class="cls-2" x="1965.49" y="735.76" width="67.75" height="73.57"/>
  <rect class="cls-2" x="1965.49" y="662.22" width="67.75" height="73.54"/>
  <rect class="cls-2" x="1965.49" y="588.67" width="67.75" height="73.54"/>
  <rect class="cls-2" x="1965.49" y="515.11" width="67.75" height="73.57"/>
  <rect class="cls-2" x="1965.49" y="441.56" width="67.75" height="73.54"/>
  <rect class="cls-2" x="1965.49" y="368.02" width="67.75" height="73.54"/>
  <rect class="cls-2" x="1965.49" y="294.45" width="67.75" height="73.57"/>
  <rect class="cls-2" x="1965.49" y="220.91" width="67.75" height="73.54"/>
  <rect class="cls-2" x="1897.72" y="1397.72" width="67.77" height="73.57"/>
  <rect class="cls-2" x="1897.72" y="1324.18" width="67.77" height="73.54"/>
  <rect class="cls-4" x="1897.72" y="1250.63" width="67.77" height="73.54"/>
  <rect class="cls-4" x="1897.72" y="1177.07" width="67.77" height="73.57"/>
  <rect class="cls-4" x="1897.72" y="1103.52" width="67.77" height="73.54"/>
  <rect class="cls-4" x="1897.72" y="1029.98" width="67.77" height="73.54"/>
  <rect class="cls-4" x="1897.72" y="956.41" width="67.77" height="73.57"/>
  <rect class="cls-4" x="1897.72" y="882.87" width="67.77" height="73.54"/>
  <rect class="cls-4" x="1897.72" y="809.33" width="67.77" height="73.54"/>
  <rect class="cls-4" x="1897.72" y="735.76" width="67.77" height="73.57"/>
  <rect class="cls-4" x="1897.72" y="662.22" width="67.77" height="73.54"/>
  <rect class="cls-4" x="1897.72" y="588.67" width="67.77" height="73.54"/>
  <rect class="cls-4" x="1897.72" y="515.11" width="67.77" height="73.57"/>
  <rect class="cls-4" x="1897.72" y="441.56" width="67.77" height="73.54"/>
  <rect class="cls-4" x="1897.72" y="368.02" width="67.77" height="73.54"/>
  <rect class="cls-4" x="1897.72" y="294.45" width="67.77" height="73.57"/>
  <rect class="cls-4" x="1897.72" y="220.91" width="67.77" height="73.54"/>
  <rect class="cls-2" x="1897.72" y="147.36" width="67.77" height="73.54"/>
  <rect class="cls-2" x="1829.95" y="1397.72" width="67.77" height="73.57"/>
  <rect class="cls-4" x="1829.95" y="1324.18" width="67.77" height="73.54"/>
  <rect class="cls-4" x="1829.95" y="1250.63" width="67.77" height="73.54"/>
  <rect class="cls-4" x="1829.95" y="1177.07" width="67.77" height="73.57"/>
  <rect class="cls-1" x="1829.95" y="1103.52" width="67.77" height="73.54"/>
  <rect class="cls-1" x="1829.95" y="1029.98" width="67.77" height="73.54"/>
  <rect class="cls-1" x="1829.95" y="956.41" width="67.77" height="73.57"/>
  <rect class="cls-1" x="1829.95" y="882.87" width="67.77" height="73.54"/>
  <rect class="cls-1" x="1829.95" y="809.33" width="67.77" height="73.54"/>
  <rect class="cls-1" x="1829.95" y="735.76" width="67.77" height="73.57"/>
  <rect class="cls-1" x="1829.95" y="662.22" width="67.77" height="73.54"/>
  <rect class="cls-1" x="1829.95" y="588.67" width="67.77" height="73.54"/>
  <rect class="cls-1" x="1829.95" y="515.11" width="67.77" height="73.57"/>
  <rect class="cls-1" x="1829.95" y="441.56" width="67.77" height="73.54"/>
  <rect class="cls-1" x="1829.95" y="368.02" width="67.77" height="73.54"/>
  <rect class="cls-4" x="1829.95" y="294.45" width="67.77" height="73.57"/>
  <rect class="cls-4" x="1829.95" y="220.91" width="67.77" height="73.54"/>
  <rect class="cls-4" x="1829.95" y="147.36" width="67.77" height="73.54"/>
  <rect class="cls-2" x="1829.95" y="73.8" width="67.77" height="73.57"/>
  <rect class="cls-2" x="1762.19" y="1397.72" width="67.75" height="73.57"/>
  <rect class="cls-4" x="1762.19" y="1324.18" width="67.75" height="73.54"/>
  <rect class="cls-4" x="1762.19" y="1250.63" width="67.75" height="73.54"/>
  <rect class="cls-1" x="1762.19" y="1177.07" width="67.75" height="73.57"/>
  <rect class="cls-1" x="1762.19" y="1103.52" width="67.75" height="73.54"/>
  <rect class="cls-1" x="1762.19" y="1029.98" width="67.75" height="73.54"/>
  <rect class="cls-1" x="1762.19" y="956.41" width="67.75" height="73.57"/>
  <rect class="cls-1" x="1762.19" y="882.87" width="67.75" height="73.54"/>
  <rect class="cls-3" x="1762.19" y="809.33" width="67.75" height="73.54"/>
  <rect class="cls-1" x="1762.19" y="735.76" width="67.75" height="73.57"/>
  <rect class="cls-1" x="1762.19" y="662.22" width="67.75" height="73.54"/>
  <rect class="cls-1" x="1762.19" y="588.67" width="67.75" height="73.54"/>
  <rect class="cls-1" x="1762.19" y="515.11" width="67.75" height="73.57"/>
  <rect class="cls-1" x="1762.19" y="441.56" width="67.75" height="73.54"/>
  <rect class="cls-1" x="1762.19" y="368.02" width="67.75" height="73.54"/>
  <rect class="cls-1" x="1762.19" y="294.45" width="67.75" height="73.57"/>
  <rect class="cls-4" x="1762.19" y="220.91" width="67.75" height="73.54"/>
  <rect class="cls-4" x="1762.19" y="147.36" width="67.75" height="73.54"/>
  <rect class="cls-2" x="1762.19" y="73.8" width="67.75" height="73.57"/>
  <rect class="cls-2" x="1694.42" y="1397.72" width="67.77" height="73.57"/>
  <rect class="cls-4" x="1694.42" y="1324.18" width="67.77" height="73.54"/>
  <rect class="cls-1" x="1694.42" y="1250.63" width="67.77" height="73.54"/>
  <rect class="cls-1" x="1694.42" y="1177.07" width="67.77" height="73.57"/>
  <rect class="cls-1" x="1694.42" y="1103.52" width="67.77" height="73.54"/>
  <rect class="cls-1" x="1694.42" y="1029.98" width="67.77" height="73.54"/>
  <rect class="cls-1" x="1694.42" y="956.41" width="67.77" height="73.57"/>
  <rect class="cls-1" x="1694.42" y="882.87" width="67.77" height="73.54"/>
  <rect class="cls-1" x="1694.42" y="809.33" width="67.77" height="73.54"/>
  <rect class="cls-1" x="1694.42" y="735.76" width="67.77" height="73.57"/>
  <rect class="cls-1" x="1694.42" y="662.22" width="67.77" height="73.54"/>
  <rect class="cls-1" x="1694.42" y="588.67" width="67.77" height="73.54"/>
  <rect class="cls-1" x="1694.42" y="515.11" width="67.77" height="73.57"/>
  <rect class="cls-3" x="1694.42" y="441.56" width="67.77" height="73.54"/>
  <rect class="cls-1" x="1694.42" y="368.02" width="67.77" height="73.54"/>
  <rect class="cls-1" x="1694.42" y="294.45" width="67.77" height="73.57"/>
  <rect class="cls-1" x="1694.42" y="220.91" width="67.77" height="73.54"/>
  <rect class="cls-4" x="1694.42" y="147.36" width="67.77" height="73.54"/>
  <rect class="cls-2" x="1694.42" y="73.8" width="67.77" height="73.57"/>
  <rect class="cls-2" x="1626.65" y="1397.72" width="67.77" height="73.57"/>
  <rect class="cls-4" x="1626.65" y="1324.18" width="67.77" height="73.54"/>
  <rect class="cls-1" x="1626.65" y="1250.63" width="67.77" height="73.54"/>
  <rect class="cls-1" x="1626.65" y="1177.07" width="67.77" height="73.57"/>
  <rect class="cls-1" x="1626.65" y="1103.52" width="67.77" height="73.54"/>
  <rect class="cls-3" x="1626.65" y="1029.98" width="67.77" height="73.54"/>
  <rect class="cls-1" x="1626.65" y="956.41" width="67.77" height="73.57"/>
  <rect class="cls-1" x="1626.65" y="882.87" width="67.77" height="73.54"/>
  <rect class="cls-1" x="1626.65" y="809.33" width="67.77" height="73.54"/>
  <rect class="cls-1" x="1626.65" y="735.76" width="67.77" height="73.57"/>
  <rect class="cls-1" x="1626.65" y="662.22" width="67.77" height="73.54"/>
  <rect class="cls-1" x="1626.65" y="588.67" width="67.77" height="73.54"/>
  <rect class="cls-1" x="1626.65" y="515.11" width="67.77" height="73.57"/>
  <rect class="cls-1" x="1626.65" y="441.56" width="67.77" height="73.54"/>
  <rect class="cls-1" x="1626.65" y="368.02" width="67.77" height="73.54"/>
  <rect class="cls-3" x="1626.65" y="294.45" width="67.77" height="73.57"/>
  <rect class="cls-1" x="1626.65" y="220.91" width="67.77" height="73.54"/>
  <rect class="cls-4" x="1626.65" y="147.36" width="67.77" height="73.54"/>
  <rect class="cls-2" x="1626.65" y="73.8" width="67.77" height="73.57"/>
  <rect class="cls-2" x="1558.88" y="1397.72" width="67.77" height="73.57"/>
  <rect class="cls-4" x="1558.88" y="1324.18" width="67.77" height="73.54"/>
  <rect class="cls-1" x="1558.88" y="1250.63" width="67.77" height="73.54"/>
  <rect class="cls-1" x="1558.88" y="1177.07" width="67.77" height="73.57"/>
  <rect class="cls-1" x="1558.88" y="1103.52" width="67.77" height="73.54"/>
  <rect class="cls-1" x="1558.88" y="1029.98" width="67.77" height="73.54"/>
  <rect class="cls-1" x="1558.88" y="956.41" width="67.77" height="73.57"/>
  <rect class="cls-1" x="1558.88" y="882.87" width="67.77" height="73.54"/>
  <rect class="cls-1" x="1558.88" y="809.33" width="67.77" height="73.54"/>
  <rect class="cls-1" x="1558.88" y="735.76" width="67.77" height="73.57"/>
  <rect class="cls-1" x="1558.88" y="662.22" width="67.77" height="73.54"/>
  <rect class="cls-3" x="1558.88" y="588.67" width="67.77" height="73.54"/>
  <rect class="cls-1" x="1558.88" y="515.11" width="67.77" height="73.57"/>
  <rect class="cls-1" x="1558.88" y="441.56" width="67.77" height="73.54"/>
  <rect class="cls-1" x="1558.88" y="368.02" width="67.77" height="73.54"/>
  <rect class="cls-1" x="1558.88" y="294.45" width="67.77" height="73.57"/>
  <rect class="cls-1" x="1558.88" y="220.91" width="67.77" height="73.54"/>
  <rect class="cls-4" x="1558.88" y="147.36" width="67.77" height="73.54"/>
  <rect class="cls-2" x="1558.88" y="73.8" width="67.77" height="73.57"/>
  <rect class="cls-2" x="1491.12" y="1397.72" width="67.75" height="73.57"/>
  <rect class="cls-4" x="1491.12" y="1324.18" width="67.75" height="73.54"/>
  <rect class="cls-1" x="1491.12" y="1250.63" width="67.75" height="73.54"/>
  <rect class="cls-1" x="1491.12" y="1177.07" width="67.75" height="73.57"/>
  <rect class="cls-1" x="1491.12" y="1103.52" width="67.75" height="73.54"/>
  <rect class="cls-1" x="1491.12" y="1029.98" width="67.75" height="73.54"/>
  <rect class="cls-1" x="1491.12" y="956.41" width="67.75" height="73.57"/>
  <rect class="cls-1" x="1491.12" y="882.87" width="67.75" height="73.54"/>
  <rect class="cls-1" x="1491.12" y="809.33" width="67.75" height="73.54"/>
  <rect class="cls-1" x="1491.12" y="735.76" width="67.75" height="73.57"/>
  <rect class="cls-1" x="1491.12" y="662.22" width="67.75" height="73.54"/>
  <rect class="cls-1" x="1491.12" y="588.67" width="67.75" height="73.54"/>
  <rect class="cls-1" x="1491.12" y="515.11" width="67.75" height="73.57"/>
  <rect class="cls-1" x="1491.12" y="441.56" width="67.75" height="73.54"/>
  <rect class="cls-1" x="1491.12" y="368.02" width="67.75" height="73.54"/>
  <rect class="cls-1" x="1491.12" y="294.45" width="67.75" height="73.57"/>
  <rect class="cls-1" x="1491.12" y="220.91" width="67.75" height="73.54"/>
  <rect class="cls-4" x="1491.12" y="147.36" width="67.75" height="73.54"/>
  <rect class="cls-2" x="1491.12" y="73.8" width="67.75" height="73.57"/>
  <rect class="cls-2" x="1423.35" y="1397.72" width="67.77" height="73.57"/>
  <rect class="cls-4" x="1423.35" y="1324.18" width="67.77" height="73.54"/>
  <rect class="cls-1" x="1423.35" y="1250.63" width="67.77" height="73.54"/>
  <rect class="cls-1" x="1423.35" y="1177.07" width="67.77" height="73.57"/>
  <rect class="cls-3" x="1423.35" y="1103.52" width="67.77" height="73.54"/>
  <rect class="cls-1" x="1423.35" y="1029.98" width="67.77" height="73.54"/>
  <rect class="cls-1" x="1423.35" y="956.41" width="67.77" height="73.57"/>
  <rect class="cls-1" x="1423.35" y="882.87" width="67.77" height="73.54"/>
  <rect class="cls-1" x="1423.35" y="809.33" width="67.77" height="73.54"/>
  <rect class="cls-1" x="1423.35" y="735.76" width="67.77" height="73.57"/>
  <rect class="cls-1" x="1423.35" y="662.22" width="67.77" height="73.54"/>
  <rect class="cls-1" x="1423.35" y="588.67" width="67.77" height="73.54"/>
  <rect class="cls-1" x="1423.35" y="515.11" width="67.77" height="73.57"/>
  <rect class="cls-1" x="1423.35" y="441.56" width="67.77" height="73.54"/>
  <rect class="cls-1" x="1423.35" y="368.02" width="67.77" height="73.54"/>
  <rect class="cls-3" x="1423.35" y="294.45" width="67.77" height="73.57"/>
  <rect class="cls-1" x="1423.35" y="220.91" width="67.77" height="73.54"/>
  <rect class="cls-4" x="1423.35" y="147.36" width="67.77" height="73.54"/>
  <rect class="cls-2" x="1423.35" y="73.8" width="67.77" height="73.57"/>
  <rect class="cls-2" x="1355.58" y="1397.72" width="67.77" height="73.57"/>
  <rect class="cls-4" x="1355.58" y="1324.18" width="67.77" height="73.54"/>
  <rect class="cls-1" x="1355.58" y="1250.63" width="67.77" height="73.54"/>
  <rect class="cls-1" x="1355.58" y="1177.07" width="67.77" height="73.57"/>
  <rect class="cls-1" x="1355.58" y="1103.52" width="67.77" height="73.54"/>
  <rect class="cls-1" x="1355.58" y="1029.98" width="67.77" height="73.54"/>
  <rect class="cls-1" x="1355.58" y="956.41" width="67.77" height="73.57"/>
  <rect class="cls-1" x="1355.58" y="882.87" width="67.77" height="73.54"/>
  <rect class="cls-1" x="1355.58" y="809.33" width="67.77" height="73.54"/>
  <rect class="cls-1" x="1355.58" y="735.76" width="67.77" height="73.57"/>
  <rect class="cls-3" x="1355.58" y="662.22" width="67.77" height="73.54"/>
  <rect class="cls-1" x="1355.58" y="588.67" width="67.77" height="73.54"/>
  <rect class="cls-1" x="1355.58" y="515.11" width="67.77" height="73.57"/>
  <rect class="cls-1" x="1355.58" y="441.56" width="67.77" height="73.54"/>
  <rect class="cls-1" x="1355.58" y="368.02" width="67.77" height="73.54"/>
  <rect class="cls-1" x="1355.58" y="294.45" width="67.77" height="73.57"/>
  <rect class="cls-1" x="1355.58" y="220.91" width="67.77" height="73.54"/>
  <rect class="cls-4" x="1355.58" y="147.36" width="67.77" height="73.54"/>
  <rect class="cls-2" x="1355.58" y="73.8" width="67.77" height="73.57"/>
  <rect class="cls-2" x="1287.81" y="1397.72" width="67.77" height="73.57"/>
  <rect class="cls-4" x="1287.81" y="1324.18" width="67.77" height="73.54"/>
  <rect class="cls-1" x="1287.81" y="1250.63" width="67.77" height="73.54"/>
  <rect class="cls-1" x="1287.81" y="1177.07" width="67.77" height="73.57"/>
  <rect class="cls-1" x="1287.81" y="1103.52" width="67.77" height="73.54"/>
  <rect class="cls-1" x="1287.81" y="1029.98" width="67.77" height="73.54"/>
  <rect class="cls-1" x="1287.81" y="956.41" width="67.77" height="73.57"/>
  <rect class="cls-1" x="1287.81" y="882.87" width="67.77" height="73.54"/>
  <rect class="cls-1" x="1287.81" y="809.33" width="67.77" height="73.54"/>
  <rect class="cls-1" x="1287.81" y="735.76" width="67.77" height="73.57"/>
  <rect class="cls-1" x="1287.81" y="662.22" width="67.77" height="73.54"/>
  <rect class="cls-1" x="1287.81" y="588.67" width="67.77" height="73.54"/>
  <rect class="cls-1" x="1287.81" y="515.11" width="67.77" height="73.57"/>
  <rect class="cls-1" x="1287.81" y="441.56" width="67.77" height="73.54"/>
  <rect class="cls-1" x="1287.81" y="368.02" width="67.77" height="73.54"/>
  <rect class="cls-1" x="1287.81" y="294.45" width="67.77" height="73.57"/>
  <rect class="cls-1" x="1287.81" y="220.91" width="67.77" height="73.54"/>
  <rect class="cls-4" x="1287.81" y="147.36" width="67.77" height="73.54"/>
  <rect class="cls-2" x="1287.81" y="73.8" width="67.77" height="73.57"/>
  <rect class="cls-2" x="1220.06" y="1397.72" width="67.75" height="73.57"/>
  <rect class="cls-4" x="1220.06" y="1324.18" width="67.75" height="73.54"/>
  <rect class="cls-1" x="1220.06" y="1250.63" width="67.75" height="73.54"/>
  <rect class="cls-1" x="1220.06" y="1177.07" width="67.75" height="73.57"/>
  <rect class="cls-1" x="1220.06" y="1103.52" width="67.75" height="73.54"/>
  <rect class="cls-1" x="1220.06" y="1029.98" width="67.75" height="73.54"/>
  <rect class="cls-1" x="1220.06" y="956.41" width="67.75" height="73.57"/>
  <rect class="cls-3" x="1220.06" y="882.87" width="67.75" height="73.54"/>
  <rect class="cls-1" x="1220.06" y="809.33" width="67.75" height="73.54"/>
  <rect class="cls-1" x="1220.06" y="735.76" width="67.75" height="73.57"/>
  <rect class="cls-1" x="1220.06" y="662.22" width="67.75" height="73.54"/>
  <rect class="cls-1" x="1220.06" y="588.67" width="67.75" height="73.54"/>
  <rect class="cls-1" x="1220.06" y="515.11" width="67.75" height="73.57"/>
  <rect class="cls-1" x="1220.06" y="441.56" width="67.75" height="73.54"/>
  <rect class="cls-1" x="1220.06" y="368.02" width="67.75" height="73.54"/>
  <rect class="cls-3" x="1220.06" y="294.45" width="67.75" height="73.57"/>
  <rect class="cls-1" x="1220.06" y="220.91" width="67.75" height="73.54"/>
  <rect class="cls-4" x="1220.06" y="147.36" width="67.75" height="73.54"/>
  <rect class="cls-2" x="1220.06" y="73.8" width="67.75" height="73.57"/>
  <rect class="cls-2" x="1152.28" y="1397.72" width="67.77" height="73.57"/>
  <rect class="cls-4" x="1152.28" y="1324.18" width="67.77" height="73.54"/>
  <rect class="cls-1" x="1152.28" y="1250.63" width="67.77" height="73.54"/>
  <rect class="cls-1" x="1152.28" y="1177.07" width="67.77" height="73.57"/>
  <rect class="cls-1" x="1152.28" y="1103.52" width="67.77" height="73.54"/>
  <rect class="cls-1" x="1152.28" y="1029.98" width="67.77" height="73.54"/>
  <rect class="cls-1" x="1152.28" y="956.41" width="67.77" height="73.57"/>
  <rect class="cls-1" x="1152.28" y="882.87" width="67.77" height="73.54"/>
  <rect class="cls-1" x="1152.28" y="809.33" width="67.77" height="73.54"/>
  <rect class="cls-1" x="1152.28" y="735.76" width="67.77" height="73.57"/>
  <rect class="cls-1" x="1152.28" y="662.22" width="67.77" height="73.54"/>
  <rect class="cls-1" x="1152.28" y="588.67" width="67.77" height="73.54"/>
  <rect class="cls-1" x="1152.28" y="515.11" width="67.77" height="73.57"/>
  <rect class="cls-1" x="1152.28" y="441.56" width="67.77" height="73.54"/>
  <rect class="cls-1" x="1152.28" y="368.02" width="67.77" height="73.54"/>
  <rect class="cls-1" x="1152.28" y="294.45" width="67.77" height="73.57"/>
  <rect class="cls-1" x="1152.28" y="220.91" width="67.77" height="73.54"/>
  <rect class="cls-4" x="1152.28" y="147.36" width="67.77" height="73.54"/>
  <rect class="cls-2" x="1152.28" y="73.8" width="67.77" height="73.57"/>
  <rect class="cls-2" x="1084.51" y="1397.72" width="67.77" height="73.57"/>
  <rect class="cls-4" x="1084.51" y="1324.18" width="67.77" height="73.54"/>
  <rect class="cls-1" x="1084.51" y="1250.63" width="67.77" height="73.54"/>
  <rect class="cls-1" x="1084.51" y="1177.07" width="67.77" height="73.57"/>
  <rect class="cls-3" x="1084.51" y="1103.52" width="67.77" height="73.54"/>
  <rect class="cls-1" x="1084.51" y="1029.98" width="67.77" height="73.54"/>
  <rect class="cls-1" x="1084.51" y="956.41" width="67.77" height="73.57"/>
  <rect class="cls-1" x="1084.51" y="882.87" width="67.77" height="73.54"/>
  <rect class="cls-1" x="1084.51" y="809.33" width="67.77" height="73.54"/>
  <rect class="cls-1" x="1084.51" y="735.76" width="67.77" height="73.57"/>
  <rect class="cls-3" x="1084.51" y="662.22" width="67.77" height="73.54"/>
  <rect class="cls-1" x="1084.51" y="588.67" width="67.77" height="73.54"/>
  <rect class="cls-1" x="1084.51" y="515.11" width="67.77" height="73.57"/>
  <rect class="cls-3" x="1084.51" y="441.56" width="67.77" height="73.54"/>
  <rect class="cls-1" x="1084.51" y="368.02" width="67.77" height="73.54"/>
  <rect class="cls-1" x="1084.51" y="294.45" width="67.77" height="73.57"/>
  <rect class="cls-1" x="1084.51" y="220.91" width="67.77" height="73.54"/>
  <rect class="cls-4" x="1084.51" y="147.36" width="67.77" height="73.54"/>
  <rect class="cls-2" x="1084.51" y="73.8" width="67.77" height="73.57"/>
  <rect class="cls-2" x="1016.76" y="1397.72" width="67.75" height="73.57"/>
  <rect class="cls-4" x="1016.76" y="1324.18" width="67.75" height="73.54"/>
  <rect class="cls-1" x="1016.76" y="1250.63" width="67.75" height="73.54"/>
  <rect class="cls-1" x="1016.76" y="1177.07" width="67.75" height="73.57"/>
  <rect class="cls-1" x="1016.76" y="1103.52" width="67.75" height="73.54"/>
  <rect class="cls-1" x="1016.76" y="1029.98" width="67.75" height="73.54"/>
  <rect class="cls-1" x="1016.76" y="956.41" width="67.75" height="73.57"/>
  <rect class="cls-1" x="1016.76" y="882.87" width="67.75" height="73.54"/>
  <rect class="cls-1" x="1016.76" y="809.33" width="67.75" height="73.54"/>
  <rect class="cls-1" x="1016.76" y="735.76" width="67.75" height="73.57"/>
  <rect class="cls-1" x="1016.76" y="662.22" width="67.75" height="73.54"/>
  <rect class="cls-1" x="1016.76" y="588.67" width="67.75" height="73.54"/>
  <rect class="cls-1" x="1016.76" y="515.11" width="67.75" height="73.57"/>
  <rect class="cls-1" x="1016.76" y="441.56" width="67.75" height="73.54"/>
  <rect class="cls-1" x="1016.76" y="368.02" width="67.75" height="73.54"/>
  <rect class="cls-1" x="1016.76" y="294.45" width="67.75" height="73.57"/>
  <rect class="cls-1" x="1016.76" y="220.91" width="67.75" height="73.54"/>
  <rect class="cls-4" x="1016.76" y="147.36" width="67.75" height="73.54"/>
  <rect class="cls-2" x="1016.76" y="73.8" width="67.75" height="73.57"/>
  <rect class="cls-2" x="948.99" y="1397.72" width="67.77" height="73.57"/>
  <rect class="cls-4" x="948.99" y="1324.18" width="67.77" height="73.54"/>
  <rect class="cls-1" x="948.99" y="1250.63" width="67.77" height="73.54"/>
  <rect class="cls-1" x="948.99" y="1177.07" width="67.77" height="73.57"/>
  <rect class="cls-1" x="948.99" y="1103.52" width="67.77" height="73.54"/>
  <rect class="cls-1" x="948.99" y="1029.98" width="67.77" height="73.54"/>
  <rect class="cls-1" x="948.99" y="956.41" width="67.77" height="73.57"/>
  <rect class="cls-1" x="948.99" y="882.87" width="67.77" height="73.54"/>
  <rect class="cls-1" x="948.99" y="809.33" width="67.77" height="73.54"/>
  <rect class="cls-1" x="948.99" y="735.76" width="67.77" height="73.57"/>
  <rect class="cls-1" x="948.99" y="662.22" width="67.77" height="73.54"/>
  <rect class="cls-1" x="948.99" y="588.67" width="67.77" height="73.54"/>
  <rect class="cls-1" x="948.99" y="515.11" width="67.77" height="73.57"/>
  <rect class="cls-1" x="948.99" y="441.56" width="67.77" height="73.54"/>
  <rect class="cls-1" x="948.99" y="368.02" width="67.77" height="73.54"/>
  <rect class="cls-1" x="948.99" y="294.45" width="67.77" height="73.57"/>
  <rect class="cls-1" x="948.99" y="220.91" width="67.77" height="73.54"/>
  <rect class="cls-4" x="948.99" y="147.36" width="67.77" height="73.54"/>
  <rect class="cls-2" x="948.99" y="73.8" width="67.77" height="73.57"/>
  <rect class="cls-2" x="881.22" y="1397.72" width="67.77" height="73.57"/>
  <rect class="cls-4" x="881.22" y="1324.18" width="67.77" height="73.54"/>
  <rect class="cls-1" x="881.22" y="1250.63" width="67.77" height="73.54"/>
  <rect class="cls-1" x="881.22" y="1177.07" width="67.77" height="73.57"/>
  <rect class="cls-1" x="881.22" y="1103.52" width="67.77" height="73.54"/>
  <rect class="cls-1" x="881.22" y="1029.98" width="67.77" height="73.54"/>
  <rect class="cls-1" x="881.22" y="956.41" width="67.77" height="73.57"/>
  <rect class="cls-1" x="881.22" y="882.87" width="67.77" height="73.54"/>
  <rect class="cls-3" x="881.22" y="809.33" width="67.77" height="73.54"/>
  <rect class="cls-1" x="881.22" y="735.76" width="67.77" height="73.57"/>
  <rect class="cls-1" x="881.22" y="662.22" width="67.77" height="73.54"/>
  <rect class="cls-1" x="881.22" y="588.67" width="67.77" height="73.54"/>
  <rect class="cls-1" x="881.22" y="515.11" width="67.77" height="73.57"/>
  <rect class="cls-1" x="881.22" y="441.56" width="67.77" height="73.54"/>
  <rect class="cls-1" x="881.22" y="368.02" width="67.77" height="73.54"/>
  <rect class="cls-1" x="881.22" y="294.45" width="67.77" height="73.57"/>
  <rect class="cls-1" x="881.22" y="220.91" width="67.77" height="73.54"/>
  <rect class="cls-4" x="881.22" y="147.36" width="67.77" height="73.54"/>
  <rect class="cls-2" x="881.22" y="73.8" width="67.77" height="73.57"/>
  <rect class="cls-2" x="813.44" y="1397.72" width="67.77" height="73.57"/>
  <rect class="cls-4" x="813.44" y="1324.18" width="67.77" height="73.54"/>
  <rect class="cls-1" x="813.44" y="1250.63" width="67.77" height="73.54"/>
  <rect class="cls-3" x="813.44" y="1177.07" width="67.77" height="73.57"/>
  <rect class="cls-1" x="813.44" y="1103.52" width="67.77" height="73.54"/>
  <rect class="cls-1" x="813.44" y="1029.98" width="67.77" height="73.54"/>
  <rect class="cls-1" x="813.44" y="956.41" width="67.77" height="73.57"/>
  <rect class="cls-1" x="813.44" y="882.87" width="67.77" height="73.54"/>
  <rect class="cls-1" x="813.44" y="809.33" width="67.77" height="73.54"/>
  <rect class="cls-1" x="813.44" y="735.76" width="67.77" height="73.57"/>
  <rect class="cls-1" x="813.44" y="662.22" width="67.77" height="73.54"/>
  <rect class="cls-1" x="813.44" y="588.67" width="67.77" height="73.54"/>
  <rect class="cls-1" x="813.44" y="515.11" width="67.77" height="73.57"/>
  <rect class="cls-1" x="813.44" y="441.56" width="67.77" height="73.54"/>
  <rect class="cls-3" x="813.44" y="368.02" width="67.77" height="73.54"/>
  <rect class="cls-1" x="813.44" y="294.45" width="67.77" height="73.57"/>
  <rect class="cls-1" x="813.44" y="220.91" width="67.77" height="73.54"/>
  <rect class="cls-4" x="813.44" y="147.36" width="67.77" height="73.54"/>
  <rect class="cls-2" x="813.44" y="73.8" width="67.77" height="73.57"/>
  <rect class="cls-2" x="745.69" y="1397.72" width="67.75" height="73.57"/>
  <rect class="cls-4" x="745.69" y="1324.18" width="67.75" height="73.54"/>
  <rect class="cls-4" x="745.69" y="1250.63" width="67.75" height="73.54"/>
  <rect class="cls-1" x="745.69" y="1177.07" width="67.75" height="73.57"/>
  <rect class="cls-1" x="745.69" y="1103.52" width="67.75" height="73.54"/>
  <rect class="cls-1" x="745.69" y="1029.98" width="67.75" height="73.54"/>
  <rect class="cls-3" x="745.69" y="956.41" width="67.75" height="73.57"/>
  <rect class="cls-1" x="745.69" y="882.87" width="67.75" height="73.54"/>
  <rect class="cls-1" x="745.69" y="809.33" width="67.75" height="73.54"/>
  <rect class="cls-1" x="745.69" y="735.76" width="67.75" height="73.57"/>
  <rect class="cls-3" x="745.69" y="662.22" width="67.75" height="73.54"/>
  <rect class="cls-1" x="745.69" y="588.67" width="67.75" height="73.54"/>
  <rect class="cls-1" x="745.69" y="515.11" width="67.75" height="73.57"/>
  <rect class="cls-1" x="745.69" y="441.56" width="67.75" height="73.54"/>
  <rect class="cls-1" x="745.69" y="368.02" width="67.75" height="73.54"/>
  <rect class="cls-1" x="745.69" y="294.45" width="67.75" height="73.57"/>
  <rect class="cls-4" x="745.69" y="220.91" width="67.75" height="73.54"/>
  <rect class="cls-4" x="745.69" y="147.36" width="67.75" height="73.54"/>
  <rect class="cls-2" x="745.69" y="73.8" width="67.75" height="73.57"/>
  <rect class="cls-2" x="677.92" y="1397.72" width="67.77" height="73.57"/>
  <rect class="cls-4" x="677.92" y="1324.18" width="67.77" height="73.54"/>
  <rect class="cls-4" x="677.92" y="1250.63" width="67.77" height="73.54"/>
  <rect class="cls-4" x="677.92" y="1177.07" width="67.77" height="73.57"/>
  <rect class="cls-1" x="677.92" y="1103.52" width="67.77" height="73.54"/>
  <rect class="cls-1" x="677.92" y="1029.98" width="67.77" height="73.54"/>
  <rect class="cls-1" x="677.92" y="956.41" width="67.77" height="73.57"/>
  <rect class="cls-1" x="677.92" y="882.87" width="67.77" height="73.54"/>
  <rect class="cls-1" x="677.92" y="809.33" width="67.77" height="73.54"/>
  <rect class="cls-1" x="677.92" y="735.76" width="67.77" height="73.57"/>
  <rect class="cls-1" x="677.92" y="662.22" width="67.77" height="73.54"/>
  <rect class="cls-1" x="677.92" y="588.67" width="67.77" height="73.54"/>
  <rect class="cls-1" x="677.92" y="515.11" width="67.77" height="73.57"/>
  <rect class="cls-1" x="677.92" y="441.56" width="67.77" height="73.54"/>
  <rect class="cls-1" x="677.92" y="368.02" width="67.77" height="73.54"/>
  <rect class="cls-4" x="677.92" y="294.45" width="67.77" height="73.57"/>
  <rect class="cls-4" x="677.92" y="220.91" width="67.77" height="73.54"/>
  <rect class="cls-4" x="677.92" y="147.36" width="67.77" height="73.54"/>
  <rect class="cls-2" x="677.92" y="73.8" width="67.77" height="73.57"/>
  <rect class="cls-2" x="610.15" y="1397.72" width="67.77" height="73.57"/>
  <rect class="cls-2" x="610.15" y="1324.18" width="67.77" height="73.54"/>
  <rect class="cls-4" x="610.15" y="1250.63" width="67.77" height="73.54"/>
  <rect class="cls-4" x="610.15" y="1177.07" width="67.77" height="73.57"/>
  <rect class="cls-4" x="610.15" y="1103.52" width="67.77" height="73.54"/>
  <rect class="cls-4" x="610.15" y="1029.98" width="67.77" height="73.54"/>
  <rect class="cls-4" x="610.15" y="956.41" width="67.77" height="73.57"/>
  <rect class="cls-4" x="610.15" y="882.87" width="67.77" height="73.54"/>
  <rect class="cls-4" x="610.15" y="809.33" width="67.77" height="73.54"/>
  <rect class="cls-4" x="610.15" y="735.76" width="67.77" height="73.57"/>
  <rect class="cls-4" x="610.15" y="662.22" width="67.77" height="73.54"/>
  <rect class="cls-4" x="610.15" y="588.67" width="67.77" height="73.54"/>
  <rect class="cls-4" x="610.15" y="515.11" width="67.77" height="73.57"/>
  <rect class="cls-4" x="610.15" y="441.56" width="67.77" height="73.54"/>
  <rect class="cls-4" x="610.15" y="368.02" width="67.77" height="73.54"/>
  <rect class="cls-4" x="610.15" y="294.45" width="67.77" height="73.57"/>
  <rect class="cls-4" x="610.15" y="220.91" width="67.77" height="73.54"/>
  <rect class="cls-2" x="610.15" y="147.36" width="67.77" height="73.54"/>
  <rect class="cls-2" x="542.39" y="1324.18" width="67.75" height="73.54"/>
  <rect class="cls-2" x="542.39" y="1250.63" width="67.75" height="73.54"/>
  <rect class="cls-2" x="542.39" y="1177.07" width="67.75" height="73.57"/>
  <rect class="cls-2" x="542.39" y="1103.52" width="67.75" height="73.54"/>
  <rect class="cls-2" x="542.39" y="1029.98" width="67.75" height="73.54"/>
  <rect class="cls-2" x="542.39" y="956.41" width="67.75" height="73.57"/>
  <rect class="cls-2" x="542.39" y="882.87" width="67.75" height="73.54"/>
  <rect class="cls-2" x="542.39" y="809.33" width="67.75" height="73.54"/>
  <rect class="cls-2" x="542.39" y="735.76" width="67.75" height="73.57"/>
  <rect class="cls-2" x="542.39" y="662.22" width="67.75" height="73.54"/>
  <rect class="cls-2" x="542.39" y="588.67" width="67.75" height="73.54"/>
  <rect class="cls-2" x="542.39" y="515.11" width="67.75" height="73.57"/>
  <rect class="cls-2" x="542.39" y="441.56" width="67.75" height="73.54"/>
  <rect class="cls-2" x="542.39" y="368.02" width="67.75" height="73.54"/>
  <rect class="cls-2" x="542.39" y="294.45" width="67.75" height="73.57"/>
  <rect class="cls-2" x="542.39" y="220.91" width="67.75" height="73.54"/>
</svg>